<svg version="1.1" id="Layer_1" xmlns="http://www.w3.org/2000/svg" xmlns:xlink="http://www.w3.org/1999/xlink" x="0px" y="0px"
	 width="100%" viewBox="0 0 400 400" enable-background="new 0 0 400 400" xml:space="preserve">
<path fill="#FFFFFF" opacity="1.000000" stroke="none" 
	d="
M191.000000,401.000000 
	C127.353073,401.000000 64.206139,401.000000 1.029604,401.000000 
	C1.029604,267.728058 1.029604,134.456131 1.029604,1.092094 
	C134.230225,1.092094 267.460510,1.092094 400.845398,1.092094 
	C400.845398,134.333191 400.845398,267.666565 400.845398,401.000000 
	C331.122864,401.000000 261.311432,401.000000 191.000000,401.000000 
M270.117584,244.959793 
	C270.117584,244.959793 270.210175,244.896469 270.368500,244.152252 
	C251.814713,209.085159 243.818985,171.125961 240.502640,132.048416 
	C250.965652,130.175659 257.254028,124.190765 256.030853,111.751907 
	C255.290329,104.221230 247.698212,97.994469 238.789490,97.993401 
	C206.665085,97.989555 174.540329,98.074158 142.416580,97.929688 
	C135.366486,97.897995 130.603363,101.214005 127.600327,107.007805 
	C122.442543,116.958763 128.292053,131.484665 143.672638,133.139420 
	C143.150192,137.427338 142.684570,141.723083 142.096329,146.001953 
	C137.345673,180.558716 128.947815,214.012894 111.723930,245.475235 
	C107.865196,251.143066 104.006462,256.810883 100.014503,262.674408 
	C96.180885,261.701691 91.608597,260.157410 86.909706,259.422119 
	C73.387016,257.306030 64.672089,268.158600 69.389229,280.981537 
	C69.826691,282.170715 70.308907,283.343445 70.854301,284.738617 
	C68.338097,284.924072 66.155960,284.887878 64.052681,285.277435 
	C58.086998,286.382355 54.550667,289.635742 54.424995,293.874146 
	C54.293156,298.320557 57.778652,301.978516 63.929035,303.046356 
	C68.081032,303.767273 72.361282,303.749573 76.655571,304.067535 
	C77.495552,308.655731 79.080925,311.182281 83.682533,313.197113 
	C91.528221,316.632416 99.713234,317.032562 108.604836,315.266998 
	C112.980766,319.685974 118.150818,322.492737 124.303757,320.138092 
	C128.836838,318.403381 132.349014,319.074432 136.278259,321.507294 
	C143.018524,325.680634 150.291901,326.151672 157.864563,323.721283 
	C159.234848,323.281555 161.070969,323.679169 162.515671,324.189453 
	C169.562088,326.678253 177.209946,323.963196 180.494370,317.586639 
	C181.233505,316.151672 181.781723,314.618378 182.047440,313.996765 
	C187.997849,314.400055 193.252960,315.056519 198.499969,314.997101 
	C201.553543,314.962524 203.603897,315.362885 205.655655,317.998352 
	C209.929764,323.488373 215.885574,324.640594 222.146332,321.393311 
	C224.868927,319.981140 226.825134,320.579865 229.506119,321.457397 
	C233.283005,322.693573 237.627090,323.655579 241.422256,322.989349 
	C245.684937,322.241058 249.535431,319.814667 253.889603,322.790344 
	C254.790649,323.406097 256.484467,322.871643 257.812653,322.850616 
	C260.846039,322.802582 263.884766,322.600342 266.911621,322.715576 
	C278.129028,323.142639 288.825043,322.063477 297.662292,312.659119 
	C299.461884,312.056335 301.241119,311.381897 303.064819,310.864105 
	C308.902863,309.206543 315.117218,308.360840 320.510712,305.786438 
	C326.680969,302.841187 329.501404,295.022522 328.130493,288.799561 
	C326.810608,282.808105 322.016693,278.656464 314.988983,277.656921 
	C313.080902,277.385559 311.101471,277.615784 308.746948,277.615784 
	C308.334473,270.863434 305.305115,265.912659 299.176147,262.994720 
	C293.172729,260.136536 287.352905,261.073578 281.685394,263.950195 
	C278.616608,254.117264 276.882355,251.241013 270.958923,245.277374 
	C270.656219,245.141479 270.353485,245.005585 270.117584,244.959793 
z"/>
<path fill="#28211E" opacity="1.000000" stroke="none" 
	d="
M239.677521,132.110962 
	C243.818985,171.125961 251.814713,209.085159 269.906708,244.603592 
	C251.868500,236.689255 239.755066,242.833374 231.476135,264.633240 
	C224.147827,260.684998 216.316467,259.169556 207.724945,259.962738 
	C197.223587,255.183395 187.412338,255.839600 178.016281,261.882233 
	C175.945053,263.214264 173.996826,264.737579 171.857468,265.842804 
	C164.903473,259.560272 157.397964,259.802551 149.668015,263.564301 
	C146.278732,247.871704 136.756882,240.449493 121.968071,241.981033 
	C118.614952,242.328293 115.388336,243.897095 112.103493,244.903656 
	C128.947815,214.012894 137.345673,180.558716 142.096329,146.001953 
	C142.684570,141.723083 143.150192,137.427338 144.099472,132.580887 
	C176.243378,132.051895 207.960449,132.081421 239.677521,132.110962 
M198.999390,218.999390 
	C198.999390,218.999390 199.019409,219.041794 199.705475,219.244980 
	C199.817947,218.836456 199.930420,218.427933 199.996628,218.003021 
	C199.996628,218.003021 200.022079,218.044983 200.468750,218.372620 
	C200.717041,218.118408 200.965317,217.864197 201.838669,217.180939 
	C202.241272,216.120773 202.643875,215.060593 202.994980,213.995895 
	C202.994980,213.995895 203.007538,214.046021 203.686005,214.435730 
	C204.805679,212.290848 205.925369,210.145966 206.995682,207.998276 
	C206.995682,207.998276 207.014984,208.043762 207.637634,208.354416 
	C208.399109,207.242203 209.160583,206.129990 210.477081,204.643311 
	C210.621811,204.009140 210.766541,203.374969 210.893951,202.390579 
	C210.893951,202.390579 210.993439,202.054337 211.558884,201.596970 
	C215.668533,193.998795 215.190781,188.256195 209.404144,186.531219 
	C203.254425,184.697998 199.437881,179.924332 194.272827,177.024490 
	C192.553864,176.059418 189.342407,176.207962 187.557922,177.194458 
	C182.243179,180.132553 177.410233,183.930054 172.166611,187.013519 
	C169.028488,188.858887 167.291916,191.124741 168.196259,194.667419 
	C168.836380,197.175049 170.088745,199.526382 171.037735,201.969177 
	C171.037735,201.969177 171.043365,201.946167 171.020096,202.555084 
	C171.331223,203.045013 171.642349,203.534943 172.369736,204.584320 
	C174.917297,208.071640 177.464859,211.558945 180.011749,214.988159 
	C180.011749,214.988159 179.953720,214.990799 179.827286,215.684814 
	C180.215439,215.804214 180.603592,215.923615 181.001434,215.996231 
	C181.001434,215.996231 180.956329,216.011887 180.631073,216.626328 
	C181.058868,217.146194 181.486664,217.666061 182.206573,218.777786 
	C184.476547,220.533127 186.746521,222.288483 189.012970,223.985214 
	C189.012970,223.985214 188.954315,223.988113 188.681213,224.729828 
	C189.121170,224.835342 189.561142,224.940842 190.003281,224.994629 
	C190.003281,224.994629 189.953781,225.009857 189.603058,225.701141 
	C193.862396,228.183029 194.686569,224.641937 196.000870,221.999146 
	C196.000870,221.999146 196.028442,222.040558 196.744263,222.321259 
	C197.176804,221.556168 197.609329,220.791077 198.000977,219.998917 
	C198.000977,219.998917 198.027618,220.039902 198.734772,220.270187 
	C198.837097,219.853271 198.939438,219.436356 198.999390,218.999390 
z"/>
<path fill="#59CEFE" opacity="1.000000" stroke="none" 
	d="
M171.991943,266.172791 
	C173.996826,264.737579 175.945053,263.214264 178.016281,261.882233 
	C187.412338,255.839600 197.223587,255.183395 207.925934,260.215820 
	C210.235367,261.859070 212.115402,262.933838 213.780594,264.275299 
	C220.069321,269.341248 222.110779,278.143890 229.522842,282.271851 
	C230.013901,282.545319 230.300827,283.366974 230.478394,283.991699 
	C231.492645,287.560150 233.970398,288.278717 237.352570,288.020020 
	C244.352356,287.484650 249.912903,290.440765 252.905701,296.636536 
	C254.966934,300.903717 257.120972,304.377655 261.787659,305.992188 
	C262.855713,306.361664 263.448151,307.952637 264.412445,308.809235 
	C266.072815,310.284180 267.653564,312.276917 269.626221,312.880219 
	C273.380096,314.028229 277.396301,314.934875 281.286041,314.871185 
	C286.524536,314.785400 291.746429,313.687378 296.975464,313.023804 
	C288.825043,322.063477 278.129028,323.142639 266.911621,322.715576 
	C263.884766,322.600342 260.846039,322.802582 257.812653,322.850616 
	C256.484467,322.871643 254.790649,323.406097 253.889603,322.790344 
	C249.535431,319.814667 245.684937,322.241058 241.422256,322.989349 
	C237.627090,323.655579 233.283005,322.693573 229.506119,321.457397 
	C226.825134,320.579865 224.868927,319.981140 222.146332,321.393311 
	C215.885574,324.640594 209.929764,323.488373 205.655655,317.998352 
	C203.603897,315.362885 201.553543,314.962524 198.499969,314.997101 
	C193.252960,315.056519 187.997849,314.400055 182.047440,313.996765 
	C181.781723,314.618378 181.233505,316.151672 180.494370,317.586639 
	C177.209946,323.963196 169.562088,326.678253 162.515671,324.189453 
	C161.070969,323.679169 159.234848,323.281555 157.864563,323.721283 
	C150.291901,326.151672 143.018524,325.680634 136.278259,321.507294 
	C132.349014,319.074432 128.836838,318.403381 124.303757,320.138092 
	C118.150818,322.492737 112.980766,319.685974 108.257126,314.716766 
	C101.506287,301.969208 110.292244,289.141815 122.586220,290.812134 
	C124.079727,291.015045 126.574570,289.313202 127.431923,287.820282 
	C131.997665,279.869781 144.760620,272.399719 154.106949,275.972809 
	C157.894012,277.420563 161.662918,278.915833 165.253754,280.316803 
	C167.473068,275.658264 169.732513,270.915527 171.991943,266.172791 
z"/>
<path fill="#3AB0E1" opacity="1.000000" stroke="none" 
	d="
M297.318878,312.841461 
	C291.746429,313.687378 286.524536,314.785400 281.286041,314.871185 
	C277.396301,314.934875 273.380096,314.028229 269.626221,312.880219 
	C267.653564,312.276917 266.072815,310.284180 264.412445,308.809235 
	C263.448151,307.952637 262.855713,306.361664 261.787659,305.992188 
	C257.120972,304.377655 254.966934,300.903717 252.905701,296.636536 
	C249.912903,290.440765 244.352356,287.484650 237.352570,288.020020 
	C233.970398,288.278717 231.492645,287.560150 230.478394,283.991699 
	C230.300827,283.366974 230.013901,282.545319 229.522842,282.271851 
	C222.110779,278.143890 220.069321,269.341248 213.780594,264.275299 
	C212.115402,262.933838 210.235367,261.859070 208.253006,260.408752 
	C216.316467,259.169556 224.147827,260.684998 231.476135,264.633240 
	C239.755066,242.833374 251.868500,236.689255 269.827545,244.975708 
	C270.210175,244.896469 270.117584,244.959793 270.077881,245.188232 
	C270.344849,245.582870 270.651489,245.749054 270.958130,245.915237 
	C276.882355,251.241013 278.616608,254.117264 281.685394,263.950195 
	C287.352905,261.073578 293.172729,260.136536 299.176147,262.994720 
	C305.305115,265.912659 308.334473,270.863434 308.746948,277.615784 
	C311.101471,277.615784 313.080902,277.385559 314.988983,277.656921 
	C322.016693,278.656464 326.810608,282.808105 328.130493,288.799561 
	C329.501404,295.022522 326.680969,302.841187 320.510712,305.786438 
	C315.117218,308.360840 308.902863,309.206543 303.064819,310.864105 
	C301.241119,311.381897 299.461884,312.056335 297.318878,312.841461 
z"/>
<path fill="#E8E8E8" opacity="1.000000" stroke="none" 
	d="
M240.090088,132.079681 
	C207.960449,132.081421 176.243378,132.051895 144.118591,132.136627 
	C128.292053,131.484665 122.442543,116.958763 127.600327,107.007805 
	C130.603363,101.214005 135.366486,97.897995 142.416580,97.929688 
	C174.540329,98.074158 206.665085,97.989555 238.789490,97.993401 
	C247.698212,97.994469 255.290329,104.221230 256.030853,111.751907 
	C257.254028,124.190765 250.965652,130.175659 240.090088,132.079681 
z"/>
<path fill="#3AB0E0" opacity="1.000000" stroke="none" 
	d="
M171.857452,265.842804 
	C169.732513,270.915527 167.473068,275.658264 165.253754,280.316803 
	C161.662918,278.915833 157.894012,277.420563 154.106949,275.972809 
	C144.760620,272.399719 131.997665,279.869781 127.431923,287.820282 
	C126.574570,289.313202 124.079727,291.015045 122.586220,290.812134 
	C110.292244,289.141815 101.506287,301.969208 107.962326,314.545837 
	C99.713234,317.032562 91.528221,316.632416 83.682533,313.197113 
	C79.080925,311.182281 77.495552,308.655731 76.655571,304.067535 
	C72.361282,303.749573 68.081032,303.767273 63.929035,303.046356 
	C57.778652,301.978516 54.293156,298.320557 54.424995,293.874146 
	C54.550667,289.635742 58.086998,286.382355 64.052681,285.277435 
	C66.155960,284.887878 68.338097,284.924072 70.854301,284.738617 
	C70.308907,283.343445 69.826691,282.170715 69.389229,280.981537 
	C64.672089,268.158600 73.387016,257.306030 86.909706,259.422119 
	C91.608597,260.157410 96.180885,261.701691 100.014503,262.674408 
	C104.006462,256.810883 107.865196,251.143066 111.913712,245.189438 
	C115.388336,243.897095 118.614952,242.328293 121.968071,241.981033 
	C136.756882,240.449493 146.278732,247.871704 149.668015,263.564301 
	C157.397964,259.802551 164.903473,259.560272 171.857452,265.842804 
z"/>
<path fill="#28211E" opacity="1.000000" stroke="none" 
	d="
M270.958527,245.596313 
	C270.651489,245.749054 270.344849,245.582870 270.044495,245.143188 
	C270.353485,245.005585 270.656219,245.141479 270.958527,245.596313 
z"/>
<path fill="#18343F" opacity="1.000000" stroke="none" 
	d="
M171.067825,201.947495 
	C170.088745,199.526382 168.836380,197.175049 168.196259,194.667419 
	C167.291916,191.124741 169.028488,188.858887 172.166611,187.013519 
	C177.410233,183.930054 182.243179,180.132553 187.557922,177.194458 
	C189.342407,176.207962 192.553864,176.059418 194.272827,177.024490 
	C199.437881,179.924332 203.254425,184.697998 209.404144,186.531219 
	C215.190781,188.256195 215.668533,193.998795 211.086563,201.557480 
	C209.414490,203.693253 208.214737,205.868500 207.014984,208.043762 
	C207.014984,208.043762 206.995682,207.998276 206.686340,208.073975 
	C205.253845,210.115128 204.130676,212.080566 203.007538,214.046021 
	C203.007538,214.046021 202.994980,213.995895 202.722717,214.050659 
	C201.968384,214.740814 201.486298,215.376190 200.753479,216.196625 
	C200.342514,216.936111 200.182297,217.490555 200.022064,218.044983 
	C200.022079,218.044983 199.996628,218.003021 199.709641,217.985245 
	C199.288239,218.325577 199.153824,218.683685 199.019409,219.041794 
	C199.019409,219.041794 198.999390,218.999390 198.713715,218.997253 
	C198.294571,219.343369 198.161087,219.691635 198.027618,220.039902 
	C198.027618,220.039902 198.000977,219.998917 197.689026,219.995300 
	C196.927521,220.674622 196.477982,221.357590 196.028442,222.040558 
	C196.028442,222.040558 196.000870,221.999146 195.669769,221.963928 
	C193.543716,222.955750 191.748749,223.982803 189.953781,225.009857 
	C189.953781,225.009857 190.003281,224.994629 189.961487,224.740189 
	C189.597900,224.319870 189.276108,224.153992 188.954315,223.988113 
	C188.954315,223.988113 189.012970,223.985214 188.917725,223.692047 
	C186.576492,221.176514 184.330490,218.954117 181.978241,216.501038 
	C181.566788,216.184204 181.261551,216.098053 180.956329,216.011887 
	C180.956329,216.011887 181.001434,215.996231 180.988403,215.714905 
	C180.634827,215.285995 180.294281,215.138397 179.953720,214.990799 
	C179.953720,214.990799 180.011749,214.988159 179.965118,214.666107 
	C177.264526,209.654282 174.610565,204.964478 171.752441,199.913910 
	C171.456345,200.793411 171.262085,201.370453 171.067825,201.947495 
M203.564880,207.945801 
	C205.016037,203.910339 206.668701,199.929871 207.794006,195.805511 
	C208.126190,194.587997 207.411880,192.300171 206.419525,191.637680 
	C201.266922,188.197769 195.869263,185.124908 190.957458,182.165482 
	C186.660461,184.907272 182.368668,188.056427 177.698746,190.475723 
	C174.766525,191.994797 174.124359,193.540054 174.644882,196.686066 
	C176.428741,207.467468 183.265640,214.635193 191.790329,222.074249 
	C195.767624,217.338989 199.457077,212.946457 203.564880,207.945801 
z"/>
<path fill="#689BB0" opacity="1.000000" stroke="none" 
	d="
M171.052780,201.958344 
	C171.262085,201.370453 171.456345,200.793411 171.752441,199.913910 
	C174.610565,204.964478 177.264526,209.654282 179.965454,214.695160 
	C177.464859,211.558945 174.917297,208.071640 172.154816,204.004059 
	C171.641037,202.931259 171.342209,202.438721 171.043365,201.946167 
	C171.043365,201.946167 171.037735,201.969177 171.052780,201.958344 
z"/>
<path fill="#6DA0B5" opacity="1.000000" stroke="none" 
	d="
M189.778412,225.355499 
	C191.748749,223.982803 193.543716,222.955750 195.689575,221.979156 
	C194.686569,224.641937 193.862396,228.183029 189.778412,225.355499 
z"/>
<path fill="#6DA0B5" opacity="1.000000" stroke="none" 
	d="
M182.084488,216.731735 
	C184.330490,218.954117 186.576492,221.176514 188.919495,223.721375 
	C186.746521,222.288483 184.476547,220.533127 182.103058,218.118256 
	C182.027847,217.216400 182.056168,216.974060 182.084488,216.731735 
z"/>
<path fill="#6CA1B6" opacity="1.000000" stroke="none" 
	d="
M207.326309,208.199097 
	C208.214737,205.868500 209.414490,203.693253 210.803833,201.786163 
	C210.993439,202.054337 210.893951,202.390579 210.659119,202.779907 
	C210.256882,203.785416 210.089462,204.401611 209.922058,205.017792 
	C209.160583,206.129990 208.399109,207.242203 207.326309,208.199097 
z"/>
<path fill="#6CA1B6" opacity="1.000000" stroke="none" 
	d="
M203.346771,214.240875 
	C204.130676,212.080566 205.253845,210.115128 206.711029,208.075378 
	C205.925369,210.145966 204.805679,212.290848 203.346771,214.240875 
z"/>
<path fill="#6CA1B6" opacity="1.000000" stroke="none" 
	d="
M201.004211,216.011566 
	C201.486298,215.376190 201.968384,214.740814 202.748474,214.052917 
	C202.643875,215.060593 202.241272,216.120773 201.464020,216.996307 
	C201.060989,216.544983 201.032608,216.278290 201.004211,216.011566 
z"/>
<path fill="#6DA0B5" opacity="1.000000" stroke="none" 
	d="
M196.386353,222.180908 
	C196.477982,221.357590 196.927521,220.674622 197.709473,220.008820 
	C197.609329,220.791077 197.176804,221.556168 196.386353,222.180908 
z"/>
<path fill="#6DA0B5" opacity="1.000000" stroke="none" 
	d="
M200.753479,216.196625 
	C201.032608,216.278290 201.060989,216.544983 201.151489,217.210846 
	C200.965317,217.864197 200.717041,218.118408 200.245407,218.208801 
	C200.182297,217.490555 200.342514,216.936111 200.753479,216.196625 
z"/>
<path fill="#689BB0" opacity="1.000000" stroke="none" 
	d="
M181.978241,216.501038 
	C182.056168,216.974060 182.027847,217.216400 181.957001,217.822327 
	C181.486664,217.666061 181.058868,217.146194 180.793701,216.319107 
	C181.261551,216.098053 181.566788,216.184204 181.978241,216.501038 
z"/>
<path fill="#18343F" opacity="1.000000" stroke="none" 
	d="
M210.199570,204.830551 
	C210.089462,204.401611 210.256882,203.785416 210.667786,202.955017 
	C210.766541,203.374969 210.621811,204.009140 210.199570,204.830551 
z"/>
<path fill="#18343F" opacity="1.000000" stroke="none" 
	d="
M171.031738,202.250626 
	C171.342209,202.438721 171.641037,202.931259 171.946671,203.724335 
	C171.642349,203.534943 171.331223,203.045013 171.031738,202.250626 
z"/>
<path fill="#6DA0B5" opacity="1.000000" stroke="none" 
	d="
M199.362442,219.143387 
	C199.153824,218.683685 199.288239,218.325577 199.732773,217.993439 
	C199.930420,218.427933 199.817947,218.836456 199.362442,219.143387 
z"/>
<path fill="#6DA0B5" opacity="1.000000" stroke="none" 
	d="
M198.381195,220.155045 
	C198.161087,219.691635 198.294571,219.343369 198.734909,219.007278 
	C198.939438,219.436356 198.837097,219.853271 198.381195,220.155045 
z"/>
<path fill="#689BB0" opacity="1.000000" stroke="none" 
	d="
M179.890503,215.337799 
	C180.294281,215.138397 180.634827,215.285995 180.983566,215.738312 
	C180.603592,215.923615 180.215439,215.804214 179.890503,215.337799 
z"/>
<path fill="#6DA0B5" opacity="1.000000" stroke="none" 
	d="
M188.817764,224.358978 
	C189.276108,224.153992 189.597900,224.319870 189.960388,224.766052 
	C189.561142,224.940842 189.121170,224.835342 188.817764,224.358978 
z"/>
<path fill="#5CC8F5" opacity="1.000000" stroke="none" 
	d="
M203.355698,208.249847 
	C199.457077,212.946457 195.767624,217.338989 191.790329,222.074249 
	C183.265640,214.635193 176.428741,207.467468 174.644882,196.686066 
	C174.124359,193.540054 174.766525,191.994797 177.698746,190.475723 
	C182.368668,188.056427 186.660461,184.907272 190.957458,182.165482 
	C195.869263,185.124908 201.266922,188.197769 206.419525,191.637680 
	C207.411880,192.300171 208.126190,194.587997 207.794006,195.805511 
	C206.668701,199.929871 205.016037,203.910339 203.355698,208.249847 
M190.902374,202.146301 
	C190.495209,203.740219 190.088043,205.334137 189.364822,208.165344 
	C192.325943,205.956680 194.550568,204.297379 196.611557,202.760117 
	C194.459656,200.717667 192.637283,198.987991 190.516159,196.974762 
	C189.433609,197.871597 188.112381,198.966156 186.394226,200.389557 
	C188.111984,201.084595 189.170212,201.512787 190.902374,202.146301 
z"/>
<path fill="#153744" opacity="1.000000" stroke="none" 
	d="
M190.565399,202.043640 
	C189.170212,201.512787 188.111984,201.084595 186.394226,200.389557 
	C188.112381,198.966156 189.433609,197.871597 190.516159,196.974762 
	C192.637283,198.987991 194.459656,200.717667 196.611557,202.760117 
	C194.550568,204.297379 192.325943,205.956680 189.364822,208.165344 
	C190.088043,205.334137 190.495209,203.740219 190.565399,202.043640 
z"/>
</svg>